<svg width="1440" height="814" fill="none" xmlns="http://www.w3.org/2000/svg"><path d="M-102.975 1139.95v-35.54l906.134-596.642A691969.714 691969.714 0 011049.2 345.384a28.392 28.392 0 0121.11-4.655c24.59 3.385 49.36 6.045 78.17 9.31-6.74 4.897-10.35 7.738-14.19 10.217-154.955 101.565-643.378 423.19-643.378 423.19S791.915 595.005 854.268 555.89a85422.344 85422.344 0 00309.062-194.304c2.94-1.814 6.01-3.567 9.62-5.683 21.89 4.412 43 12.073 62.65 22.731-1.08 4.897-5.11 6.046-8.05 8.283C859.319 641.798-79.525 1287.04-79.525 1287.04s318.68-204.28 380.011-244.3a2499453.703 2499453.703 0 00964.704-630.795c2.94-1.934 6.01-3.687 9.62-6.045a124.834 124.834 0 0130.42 29.321C1014.69 630.976-52.287 1351.43-52.287 1351.43S1024.37 642.705 1318.64 449.972c4.93 6.59 9.14 12.091 14.61 19.346L-58.36 1374.88c-8.057-15.29-10.643-31.19-16.174-47.51 29.042-19.53 242.858-159.06 242.858-159.06s-215.26 130.4-244.903 148.05a483.84 483.84 0 01-16.295-73.09c232.637-160.39 734.168-504.441 733.566-505.408-.601-.967-502.973 330.628-737.053 487.818-2.465-24.18-4.63-45.34-6.915-67.41C-66.116 1133 1056.72 370.836 1056.72 370.836S-97.985 1136.93-102.975 1139.95zm757.617-462.362L434.091 1025.15l220.551-347.562zm571.938-14.147c51.77-31.437 103.48-62.995 156.76-95.46a422.779 422.779 0 0119.48 51.448L22.512 1544.4a353.857 353.857 0 01-28.742-48.73 41.697 41.697 0 0114.672-11.36c167.938-107.49 827.185-533.644 827.185-533.644S109.577 1404.08.925 1471.37c-4.57 2.84-9.32 5.38-14.791 8.46a286.248 286.248 0 01-21.706-44.19c38.782-24.18 586.131-375.49 586.131-375.49s-584.207 361.16-589.258 364.07a11.306 11.306 0 01-3.803-4.11 11.388 11.388 0 01-1.368-5.45l1385.54-930.047a43.08 43.08 0 0110.34 17.532c-28.98 19.95-58.14 40.082-87.43 60.093-94.28 64.506-378.806 259.174-408.028 278.64 0 0-186.879 121.577-186.398 122.181.481.605 188.983-118.251 188.983-118.251 29.223-19.709 247.973-164.802 313.573-208.089a45651.175 45651.175 0 00175.45-116.256c3.25-2.176 6.62-4.111 10.7-6.65a192.462 192.462 0 0116.96 35.246c-2.22 6.045-8 7.919-12.45 10.821-112.74 72.547-528.705 342.059-528.705 342.059S1154.31 707.15 1226.58 663.441zm-72.69 503.109c60.77-38.73 121.54-77.48 182.31-116.25 53.99-34.58 107.93-69.245 161.8-103.987 4.57-2.962 9.26-5.743 15.09-9.31a229.187 229.187 0 018.78 43.709L319.306 1825.34a114.717 114.717 0 01-26.276-16.08l72.154-49.94c263.542-181.79 944.016-652.38 944.016-652.38l-333.413 217.28a6690490.786 6690490.786 0 00-705.185 459.46l-9.741 6.05a599.172 599.172 0 01-58.445-42.98L1503.11 894.926c5.47 10.458 6.02 20.978 9.02 31.739-44.43 29.019-88.39 57.735-132.28 86.395l-221.51 144.49c-2.53 1.63-4.75 3.62-7.16 5.38l-18.04 12.09-22.06 14.14-19.79 13.06-9.26 6.05-3.42 2.05-9.2 6.05-185.499 120.06-608.92 392.97 614.271-391.46 182.548-118.31 9.2-6.04 3.43-1.88 9.2-6.04 20.44-13.18 22.01-14.15 17.8-11.79zM5.677 872.92c.661.967 640.607-420.651 873.244-573.846l51.289 12.394L-98.706 1013.36a76.994 76.994 0 013.428-26.783c61.631-42.319 572.842-388.428 572.241-389.335-.601-.907-508.866 335.831-570.618 376.76a583.176 583.176 0 0116.114-79.439L99.598 773.652C251.3 669.486 765.639 316.365 765.639 316.365s-347 225.56-418.493 272.05A450253.575 450253.575 0 00-51.565 846.501c-3.668 2.418-7.637 4.534-13.048 7.738 3.608-17.109 8.96-29.321 23.63-39.054A406436.046 406436.046 0 00747.06 289.583c2.886-1.935 6.012-3.748 9.019-5.743a656.015 656.015 0 0184.781 8.524C618.385 447.13 180.35 754.971 180.35 754.971M91.361 1639.01l-30.064-37.36c456.735-302.28 913.33-604.333 1369.783-906.168a260.397 260.397 0 0022.79 59.731L110.662 1656.49c-6.012-.37-7.937-3.99-10.342-9.31 38.362-26.3 645.899-444.72 643.374-443.14.24 0-626.057 417.56-652.333 434.97zM475.4 1891.66a621.16 621.16 0 01-74.74-27.39l1129.09-744.81c2.71 26.05-1.56 49.51-3.01 73.57L475.4 1891.66zm1054.29-836.34c.6 12.81 1.08 24.18 1.62 36.75L368.371 1850.79l-41.309-20.55L1524.22 999.514l3.61 23.756c-45.34 32.71-518.37 370.66-518.37 370.66s514.28-334.99 520.23-338.61zM180.77 1729.21l-36.077-32.58L1480.5 819.175c4.03 11.668 7.58 21.825 11.31 32.525L180.77 1729.21zM944.22 316.365c25.374 6.045 48.103 17.048 74.92 21.099L-102.675 1085.06a17.212 17.212 0 010-13.24c60.129-42.62 434.969-306.33 434.428-307.116-.541-.786-373.397 253.916-433.345 294.476-3.067-7.13 0-12.81-.421-19.4L944.22 316.365zm296.67 1266.785l212.98-139.04 2.64 2.78c-12.74 23.33-19.54 48.97-45.33 65.53a89127.432 89127.432 0 00-620.529 402.45c-24.051 15.6-48.463 9.13-73.837 9.13 63.676-44.13 352.836-237.47 354.756-242.18-4.99 1.09-354.756 226.71-356.44 228.4-18.038 16.99-39.745 18.13-66.622 13.3l834.582-549.12a53.637 53.637 0 01-6.45 25.29 53.402 53.402 0 01-17.6 19.21 3861.358 3861.358 0 00-220.97 160.99l-14.49 9.31c6.34.36 12.56-1.81 17.31-6.05zm174.62-924.908l8.11 24.182L57.388 1594.1c-10.883-10.1-17.257-22.49-25.915-34.89L1415.51 658.242zm-688.955-372.77L-39.119 785.501c8.177-24.183 19.722-43.528 28.861-63.781 10.426-22.22 27.164-40.838 48.103-53.503a126087.614 126087.614 0 00559.194-372.226 52.6 52.6 0 0125.073-8.464 486.317 486.317 0 01104.443-2.055zM550.138 1911.06l-54.116-13.17 1026.808-682.07c-.78 14.66-2.94 29.22-6.43 43.47l-966.262 651.77zm948.222-575.9l-203.05 137.96a440526.476 440526.476 0 00-648.846 441.33c-4.34 3.27-9.3 5.61-14.574 6.88a39.839 39.839 0 01-16.091.5c-12.026-2.06-23.69-3.69-38.903-6.05l933.134-631.82c-1.45 18.86-7.16 34.22-11.67 51.2zM121.963 1673.05L1460.18 770.931a80.932 80.932 0 017.94 28.958L344.378 1538.23a69486.507 69486.507 0 01-204.857 134.34c-4.69 3.02-9.681 10.03-17.558.48zM578.459 296.475L24.617 669.486l-3.247-2.72c12.748-16.988 20.444-38.027 38.422-50.843A136095.082 136095.082 0 01479.488 319.69a38.87 38.87 0 0110.402-6.046 418.022 418.022 0 0188.569-17.169zM1350.27 1617.07c-27.9 39.6-62.24 73.21-98.25 105.01-91.28 81.3-199.67 140.79-317.059 173.99-3.307.97-12.026 3.09-15.513 3.99a60.412 60.412 0 0110.823-9.13 413533.07 413533.07 0 01409.839-270.42c2.94-1.93 5.65-6.04 10.34-3.26l-.18-.18zm78.71-102.23c-6.02 15.23-17.08 24.97-30.07 34.1a55687.598 55687.598 0 00-298.18 208.39l-221.809 156.88-8.418.36 218.567-158.45-135.891 90.68c-33.792 22.49-67.464 45.04-100.895 68.07a40.076 40.076 0 01-15.182 6.67 39.865 39.865 0 01-16.566-.08c15.634-10.7 29.403-20.25 43.293-29.62a805991.738 805991.738 0 01551.261-370.47c4.08-2.78 7.39-8.83 14.07-6.05l-.18-.48zm36.97-1462.002V83.55l-177.38 119.823a55.413 55.413 0 0113.17-39.659c37.52-43.83 75.88-86.814 115.99-128.287 9.98-10.277 21.53-19.467 24.53-35.427 16.9 3.809 20.81 15.295 23.27 28.535-26.33 20.253-83.82 65.11-83.82 65.11s58.33-27.748 84.24-40.807zm-6.13 109.545c3.61-2.357 12.03-8.645 12.03-8.645 1.62 8.645 3.96 20.434 5.71 29.805-31.51 20.797-98.55 67.045-98.55 67.045l89.05-41.775s-120.26 86.513-173.53 123.814c-1.87-21.281-4.45-46.249-5.71-60.456-.25.121 122.18-78.351 171-109.788zm-20.26-14.085l23.45-11.124c1.98 9.612-5.41 11.003-9.56 13.905-50.39 35.185-164.87 112.387-164.87 112.387v-48.909l170.94-114.866c3.49 10.399 1.98 19.648 2.59 29.503l-25.08 15.899-5.71 3.507-3.79 1.874-6.01 3.446c-7.04 3.385-57.96 35.306-57.96 35.306 6.97-3.93 53.15-28.898 60.12-32.827l6.02-3.023 3.66-1.874 6.2-3.204zM391.521 354.15L151.008 514.418l-2.405-3.628c69.938-67.281 151.186-121.564 239.972-160.328l2.946 3.688zm1052.849-61.302l14.67 18.137-101.14 73.272-34.69-9.492 121.16-81.917zm5.59 116.679l-30.49-7.436 75.1-60.456 26.28 11.305-70.89 56.587zm34.34-75.449l-84.18 61.846-24.06-7.557 91.04-68.496 17.2 14.207zm59.7 29.079s-43.11 54.773-74.92 50.299l64.76-55.558s7.15 3.99 10.16 5.259z" fill="#F5F5F5"/><path d="M1350.57 1617.25c-1.32-1.21-.84-1.93.72-2.42 1.38 1.57 0 1.82-1.02 2.24l.3.18zm78.47-102.17l-.19-1.03.07.79.12.24z" fill="#F5F5F5"/></svg>