<svg width="34" height="40" fill="none" xmlns="http://www.w3.org/2000/svg"><path d="M.021 23.681v-.74c1.479-.981 2.98-1.978 4.482-2.973l14.215-9.423a5214.22 5214.22 0 015.071-3.368.579.579 0 01.436-.096c.509.07 1.019.124 1.61.185-.138.1-.212.16-.292.211-3.188 2.12-13.28 8.801-13.28 8.801l7.504-4.725c2.123-1.341 4.246-2.686 6.37-4.035.06-.04.123-.074.197-.119a4.6 4.6 0 011.305.478c-.022.1-.105.129-.166.172C19.875 13.334.503 26.74.503 26.74s6.578-4.253 7.842-5.078L28.251 8.56c.06-.04.122-.078.2-.126.241.167.453.373.626.61-5.996 4.065-28.01 19.029-28.01 19.029S23.28 13.353 29.35 9.356l.3.401L.942 28.56a6.511 6.511 0 01-.334-.986c.6-.407 5.012-3.304 5.012-3.304S1.184 26.979.566 27.347a10.094 10.094 0 01-.336-1.518c4.805-3.33 15.155-10.477 15.133-10.498-.022-.02-10.381 6.865-15.205 10.131l-.144-1.4L23.95 7.706S.125 23.616.021 23.681zm27.434-9.901c1.069-.653 2.135-1.31 3.235-1.985.157.35.291.709.402 1.075L2.613 32.078a7.244 7.244 0 01-.586-1.01.853.853 0 01.303-.239c3.456-2.23 17.07-11.083 17.07-11.083S4.417 29.166 2.175 30.56c-.094.06-.185.113-.305.185a5.768 5.768 0 01-.447-.925c.798-.505 12.093-7.799 12.093-7.799l-12.163 7.56a.239.239 0 01-.107-.197L29.83 10.07c.1.104.174.231.215.37l-1.806 1.248a4003.82 4003.82 0 01-8.419 5.787s-3.855 2.524-3.848 2.537c.008.013 3.902-2.463 3.902-2.463.602-.409 5.116-3.422 6.469-4.322a1994.97 1994.97 0 003.618-2.414c.069-.044.137-.085.222-.136.142.233.259.481.35.74-.047.13-.165.164-.257.223L19.37 18.745s6.593-4.054 8.084-4.965z" fill="#EF8E1E"/><path d="M25.954 24.234l3.763-2.415 3.338-2.16c.095-.061.185-.118.313-.185.09.296.152.6.184.908L8.743 37.916a2.446 2.446 0 01-.543-.333l1.49-1.04c5.437-3.776 19.481-13.55 19.481-13.55l-6.89 4.513c-4.85 3.178-9.701 6.359-14.55 9.541l-.2.13a12.26 12.26 0 01-1.207-.894L33.16 18.59c.084.213.146.434.184.66l-2.731 1.794-4.562 3.002c-.051.035-.098.076-.148.113l-.37.247-.469.3c-.135.093-.271.185-.408.274l-.185.122-.07.044-.185.122-3.839 2.488L7.81 35.92l12.676-8.138 3.772-2.457.185-.123.07-.038.185-.128.421-.272.455-.294.38-.237zm-23.69-6.099c.013.02 13.217-8.736 18.018-11.92l1.058.26L.11 21.052a1.623 1.623 0 01.071-.555c1.272-.877 11.829-8.067 11.807-8.086-.023-.018-10.498 6.974-11.774 7.823.073-.557.184-1.108.333-1.65l3.654-2.518c3.13-2.157 13.743-9.484 13.743-9.484s-7.16 4.677-8.635 5.637L1.083 17.58c-.076.05-.157.093-.27.16a1.134 1.134 0 01.488-.801A8898.25 8898.25 0 0017.565 6.027l.185-.118c.587.022 1.172.084 1.75.185C14.911 9.308 5.872 15.71 5.872 15.71" fill="#F09126"/><path d="M4.033 34.047c-.207-.255-.4-.497-.625-.776l28.263-18.822c.105.432.263.848.47 1.241L4.427 34.408c-.118 0-.164-.081-.212-.185.79-.545 13.325-9.236 13.28-9.204L4.032 34.047zm7.923 5.247a12.563 12.563 0 01-1.542-.57l23.297-15.468c.056.54-.033 1.028-.063 1.528l-21.692 14.51zM33.71 21.932c.013.266.022.5.033.764L9.748 38.446l-.852-.424 24.7-17.253.073.493c-.935.67-10.696 7.698-10.696 7.698s10.615-6.962 10.737-7.028zM5.875 35.92l-.74-.676 27.558-18.226.233.677-27.05 18.226z" fill="#EF8E1E"/><path d="M21.63 6.582c.523.122.994.355 1.545.438L.028 22.555a.357.357 0 010-.275c1.245-.884 8.975-6.362 8.964-6.379-.012-.017-7.706 5.258-8.946 6.103-.065-.15 0-.266 0-.405L21.63 6.582z" fill="#F09126"/><path d="M27.751 32.886l4.4-2.89.056.057c-.262.484-.403 1.017-.935 1.36-4.278 2.77-8.546 5.556-12.803 8.36-.493.325-1 .185-1.523.185 1.313-.925 7.28-4.934 7.32-5.03-.102.022-7.318 4.708-7.355 4.743-.37.354-.82.38-1.375.276l17.222-11.404a1.11 1.11 0 01-.497.925 78.29 78.29 0 00-4.558 3.344l-.301.196a.497.497 0 00.349-.122zm3.602-19.21l.168.507-28.19 18.93a4.146 4.146 0 01-.535-.725l28.557-18.712zM17.139 5.933L1.342 16.319c.175-.451.374-.893.595-1.324.215-.46.56-.846.993-1.11 3.851-2.567 7.696-5.144 11.533-7.732.154-.104.332-.168.517-.185.716-.089 1.44-.1 2.159-.035zM13.5 39.697l-1.124-.274 21.191-14.162c-.015.304-.06.606-.13.902L13.498 39.697zm19.563-11.962l-4.188 2.867a8772.801 8772.801 0 00-13.389 9.16.81.81 0 01-.634.153c-.243-.044-.487-.077-.802-.123l19.253-13.12a5.681 5.681 0 01-.24 1.063z" fill="#EF8E1E"/><path d="M4.663 34.75l27.613-18.736c.09.189.146.392.164.601l-2.246 1.48L9.252 31.953c-1.408.93-2.817 1.86-4.227 2.789-.096.063-.2.209-.362.007zm9.419-28.588L2.654 13.915l-.074-.057c.265-.354.422-.79.793-1.056l8.668-6.155a.843.843 0 01.213-.122 8.585 8.585 0 011.828-.363z" fill="#F09126"/><path d="M30.007 33.583a12.743 12.743 0 01-2.033 2.18 16.632 16.632 0 01-6.539 3.616l-.321.081a1.24 1.24 0 01.225-.184c2.817-1.875 5.636-3.747 8.456-5.617.06-.04.116-.131.212-.069v-.007z" fill="#EF8E1E"/><path d="M31.63 31.467a1.533 1.533 0 01-.623.709 1158.06 1158.06 0 00-6.15 4.327l-4.579 3.259h-.173l4.511-3.29-2.804 1.877c-.698.468-1.393.936-2.082 1.415a.822.822 0 01-.655.137c.322-.222.606-.422.893-.616 3.791-2.566 7.582-5.13 11.374-7.694.085-.057.153-.185.29-.125l-.002.001zm.764-30.363v.638l-3.66 2.486c-.019-.3.08-.595.276-.823A55.388 55.388 0 0131.412.74c.207-.213.446-.403.507-.74.347.08.429.318.48.594-.543.42-1.73 1.352-1.73 1.352s1.189-.574 1.725-.842zm-.126 2.273c.074-.048.244-.185.244-.185.031.185.081.424.116.618-.648.433-2.033 1.392-2.033 1.392l1.837-.867s-2.482 1.798-3.58 2.572c-.038-.442-.092-.96-.118-1.253 0 .003 2.527-1.624 3.534-2.277zm-.418-.292l.486-.231c.043.2-.11.227-.196.288-1.042.73-3.406 2.33-3.406 2.33V4.461l3.528-2.39c.047.2.065.407.052.612l-.515.331-.119.073-.077.038-.12.073c-.145.07-1.196.74-1.196.74.144-.082 1.096-.6 1.24-.681l.125-.063.076-.039.122-.07zM10.226 7.36l-4.957 3.33-.05-.076a16.87 16.87 0 014.951-3.33l.056.077zm21.722-1.274l.304.381-2.087 1.519-.715-.198 2.498-1.702zm.117 2.418l-.629-.154 1.549-1.254.541.235-1.461 1.173zm.707-1.552l-1.73 1.276-.5-.157 1.877-1.422.353.303zM34 7.547s-.89 1.138-1.545 1.045l1.334-1.154s.154.083.211.11z" fill="#F09126"/><path d="M30.013 33.594c-.026-.026-.016-.04.016-.05.028.034 0 .037-.021.046l.005.004z" fill="#EF8E1E"/><path d="M31.632 31.473l-.002-.022v.016l.002.006z" fill="#F09126"/></svg>