<svg width="138" height="60" fill="none" xmlns="http://www.w3.org/2000/svg"><path fill-rule="evenodd" clip-rule="evenodd" d="M60.898 45.951v-.012l.057-1.461h.471V59.98H37.788v-.86h4.196V.806h-4.142L37.839 0h15.16v.798h-4.21v58.323c.997.075 2.013.008 2.079-.002 4.64-.498 7.492-2.154 8.724-5.07 1.096-2.405 1.203-5.299 1.305-8.1l.002.002zm38.73 8.1c1.101-2.41 1.207-5.31 1.309-8.112l.06-1.461h.467V59.98H77.829v-.86h4.194V.806H77.88L77.877 0h15.162v.798h-4.212v58.323a14.89 14.89 0 002.079-.002c4.64-.498 7.492-2.154 8.724-5.07l-.001.002zM23.112 45.99c-.102 2.805-.207 5.701-1.307 8.115-1.61 3.812-5.75 4.677-8.722 4.995a14.9 14.9 0 01-2.081.002V30.135c.956-.015 2.493.098 2.854.189 1.472.312 2.786 1.806 3.206 3.069.637 1.929.681 4.036.726 6.268l.03 1.256h.486v-22.08h-.488l-.03 1.257c-.044 2.232-.087 4.338-.724 6.267-.48 1.446-1.857 2.75-3.203 3.034-.354.09-1.87.229-2.857.223V.916a15.416 15.416 0 012.075 0c3.09.333 7.105 1.532 8.726 5.376 1.102 2.413 1.207 5.311 1.308 8.114l.059 1.463h.445V.008L.049.006v.069l.004.777h4.026l.083.021.033.007V59.1H0v.885h23.637V44.529h-.47l-.058 1.462.001-.001zm114.363.015l.058-1.464H138V60h-23.637v-.885h4.194V.895a2.305 2.305 0 01-.114-.03h-4.028l-.002-.846h23.563v15.866h-.446l-.059-1.464c-.101-2.802-.206-5.7-1.306-8.115-1.623-3.841-5.64-5.043-8.728-5.376a15.187 15.187 0 00-2.075 0v28.7c.987.007 2.506-.133 2.858-.221 1.346-.285 2.722-1.59 3.203-3.034.637-1.928.681-4.035.725-6.266l.03-1.259h.487v22.08h-.487l-.03-1.258c-.044-2.23-.089-4.335-.725-6.265-.42-1.263-1.733-2.757-3.206-3.07-.36-.091-1.899-.203-2.855-.189v28.967c.693.048 1.387.048 2.079 0 2.974-.32 7.115-1.185 8.724-4.998 1.1-2.412 1.205-5.31 1.306-8.112h.003z" fill="#101010"/></svg>