<svg width="138" height="138" fill="none" xmlns="http://www.w3.org/2000/svg"><g filter="url(#filter0_d)"><path d="M4.718 2.247h125.506v125.507H4.718V2.247z" fill="red"/><path fill-rule="evenodd" clip-rule="evenodd" d="M40.56 54.568h5.618V24.075h-5.111s-8.476 17.765-8.8 18.427V24.074H26.69v30.494h5.188l8.683-17.755v17.755zm15.708-5.32c.223-.491.402-1 .535-1.523.652-3.25.97-6.558.948-9.872l.306-8.384h6.001v19.778h-7.79zm-8.017 5.305h23.614v-5.306h-2.232l-.041-25.172H53.044l-.422 12.52c-.108 3.5-.11 8.345-1.392 10.988a5.45 5.45 0 01-1.192 1.627c-.305.074-.598.14-.877.2-.317.068-.646.13-.989.186l-.415.069v4.894h.495l-.002-.006zm25.733.01h16.192v-5.61H79.094v-7.1h9.533v-5.401h-9.533v-6.891H90.17v-5.486H73.487v30.493h.496l.001-.005zm37.327 0V24.074H106.2l-8.802 18.427V24.075h-5.575v30.493h5.187l8.681-17.755v17.755h5.619l.001-.005zM50.144 67.068c.002.184-.018.369-.058.549a1.14 1.14 0 01-.184.417.81.81 0 01-.32.257 1.33 1.33 0 01-.545.098h-1.21v-2.55h1.194a1.012 1.012 0 01.86.306c.188.268.28.591.263.918v.005zm-.145-4.402c.016.304-.078.604-.265.844a1.036 1.036 0 01-.843.299h-1.07V61.56h1.049a1.107 1.107 0 01.863.277c.188.234.281.53.261.83h.005zm1.442 7.016a3.48 3.48 0 00.85-2.509c0-.272-.03-.544-.085-.81a3.026 3.026 0 00-.271-.756 2.215 2.215 0 00-.49-.632 1.909 1.909 0 00-.306-.221c.303-.2.548-.477.709-.802.198-.42.3-.88.296-1.344a3.243 3.243 0 00-.793-2.294 3.059 3.059 0 00-2.353-.86h-3.364v11.111h3.545a3.035 3.035 0 002.266-.885l-.004.001zm5.548-3.474h-1.403l.443-1.803-.243-.06.124.025.12.029.262-1.207c0 .03.014.066.023.098.052.231.101.459.144.664.043.205.075.367.098.459l.432 1.795zm1.071 4.36h2.31L57.285 59.46h-2l-3.07 11.11h2.266l.06-.183c.032-.102.073-.257.127-.473.053-.215.113-.442.176-.683l.179-.68c.027-.103.052-.19.07-.267h2.401l.566 2.282zm2.839 0h10.117V59.46h-2.169v8.972h-1.79V59.46H64.86v8.973H63.1V59.46h-2.206v11.112l.005-.005zm11.658 0h5.896V68.39h-3.976v-2.385h3.418v-2.104h-3.414v-2.308h3.977v-2.141h-6.162v11.111h.261v.003zm8.807-8.977h3.917V59.45h-6.098v11.11h2.18v-8.969zm8.78 5.64a1.207 1.207 0 01-.336.918 1.07 1.07 0 01-.8.33.983.983 0 01-.918-.397 2.034 2.034 0 01-.294-1.137l-.012-4.048c0-.151.022-.302.063-.448.04-.152.108-.295.199-.424.097-.133.224-.243.37-.32a1.15 1.15 0 01.578-.126.976.976 0 01.546.133c.142.088.263.205.356.344.088.131.153.277.192.43.034.13.053.264.056.399v4.35-.004zm2.21-.136v-4.18c0-.426-.066-.849-.194-1.255a3.254 3.254 0 00-.612-1.141 3.187 3.187 0 00-1.052-.818 3.34 3.34 0 00-1.497-.319 3.412 3.412 0 00-1.571.334 3.176 3.176 0 00-1.63 1.987 4.357 4.357 0 00-.178 1.212v4.003c-.003.473.06.944.185 1.4.115.435.315.843.59 1.2.281.36.646.648 1.062.837.484.214 1.01.319 1.54.305a3.61 3.61 0 001.347-.246 3.102 3.102 0 001.768-1.855c.167-.469.249-.963.242-1.46v-.004zm9.857 27.227l2.362-9.53 2.165 9.53h-4.527zm4.871-18.876h-5.226l-8.448 30.57h5.874l1.669-6.375h7.08l1.584 6.375h5.956l-8.489-30.57zm-26.88 16L73.78 75.445h-5.255v30.572h5.623V90.341l4.129 10.362h3.966l4.09-10.309v15.622h5.625V75.444h-5.295l-6.46 16.003zm-19.588 5.488a3.598 3.598 0 01-1.008 2.729 3.313 3.313 0 01-2.4.989 3.013 3.013 0 01-2.763-1.223 5.994 5.994 0 01-.855-3.304l-.04-11.318c.006-.445.069-.887.187-1.316.123-.454.325-.882.596-1.265a3.318 3.318 0 011.102-.96 3.51 3.51 0 011.73-.385 3.012 3.012 0 011.663.41c.42.265.779.615 1.056 1.026.26.389.45.82.563 1.273.103.384.16.78.168 1.178v12.166h.001zm3.492-18.613a8.692 8.692 0 00-2.866-2.231 9.09 9.09 0 00-4.082-.858 9.237 9.237 0 00-4.273.905 8.534 8.534 0 00-2.847 2.294 8.985 8.985 0 00-1.593 3.103 11.962 11.962 0 00-.487 3.324v11.19a14.369 14.369 0 00.507 3.847 9.363 9.363 0 001.608 3.275 7.82 7.82 0 002.886 2.271 9.74 9.74 0 004.197.83h.01a9.783 9.783 0 003.67-.671 8.218 8.218 0 002.917-1.966 8.851 8.851 0 001.898-3.081c.455-1.283.678-2.637.659-3.998V84.862a11.513 11.513 0 00-.53-3.44 8.97 8.97 0 00-1.683-3.102l.009.001zm-25.327 22.371h-7.823a8.835 8.835 0 00.541-1.53c.238-.937.411-1.888.52-2.849.124-1.033.212-2.15.266-3.35.054-1.2.109-2.433.164-3.7l.306-8.412h6.026v19.841zm5.542-25.248H27.735l-.425 12.55c-.053 1.896-.12 3.542-.202 4.94a26.832 26.832 0 01-.418 3.587 10.459 10.459 0 01-.775 2.5 5.458 5.458 0 01-1.196 1.631c-.306.074-.601.139-.884.202-.317.07-.647.132-.991.187l-.415.068v4.895h24.165v-5.311h-2.23l-.043-25.249zM134 130H4V0h130v130zM8.815 125.185h120.364V4.815H8.815v120.37z" fill="#fff"/></g><defs><filter id="filter0_d" x="0" y="0" width="138" height="138" filterUnits="userSpaceOnUse" color-interpolation-filters="sRGB"><feFlood flood-opacity="0" result="BackgroundImageFix"/><feColorMatrix in="SourceAlpha" values="0 0 0 0 0 0 0 0 0 0 0 0 0 0 0 0 0 0 127 0" result="hardAlpha"/><feOffset dy="4"/><feGaussianBlur stdDeviation="2"/><feComposite in2="hardAlpha" operator="out"/><feColorMatrix values="0 0 0 0 0 0 0 0 0 0 0 0 0 0 0 0 0 0 0.25 0"/><feBlend in2="BackgroundImageFix" result="effect1_dropShadow"/><feBlend in="SourceGraphic" in2="effect1_dropShadow" result="shape"/></filter></defs></svg>