<svg width="161" height="64" fill="none" xmlns="http://www.w3.org/2000/svg"><path fill-rule="evenodd" clip-rule="evenodd" d="M95.405 1.56c-2.69.865-5.061 1.727-5.27 1.915-.609.551-1.148 1.862-1.148 2.793 0 .553.411 2.074 1.148 4.248.631 1.862 1.112 3.478 1.069 3.591-.044.113-.453.305-.91.428-1.969.526-2.916 1.722-2.755 3.477.052.575 1.588 6.13 3.412 12.346 1.825 6.215 4.618 15.745 6.207 21.177 1.589 5.432 3.012 10.173 3.163 10.534.546 1.31 1.507 1.95 2.899 1.93.733-.01 8.118-2.019 9.725-2.646 1.414-.551 2.253-2 1.985-3.428-.1-.53-9.196-31.776-12.172-41.807-.694-2.34-1.005-2.9-1.985-3.566-.854-.58-1.748-.547-4.238.158-1.138.322-2.09.557-2.116.522-.187-.246-2.01-6.292-2.01-6.665 0-.95.612-1.37 3.557-2.437 3.193-1.157 4.333-1.298 5.014-.618.266.266 2.252 5.553 5.699 15.174 3.366 9.393 5.442 14.927 5.707 15.208.686.73 1.899 1.09 3.257.965.936-.085 7.641-2.12 9.468-2.873.232-.096.458.247 1.019 1.546.397.918.739 1.689.76 1.712.02.024 6.874-2.352 15.23-5.281 8.356-2.929 15.963-5.59 16.904-5.915.94-.325 1.739-.613 1.774-.64.101-.075-4.994-11.63-5.1-11.57-.085.05-4.609 1.731-20.527 7.63-2.665.988-6.696 2.482-8.958 3.322l-4.112 1.526 1.042 2.37c.572 1.303 1.011 2.4.974 2.437-.297.296-7.31 2.806-8.07 2.888-.912.098-1.018.063-1.645-.537-.596-.57-.873-1.238-2.511-6.055a11372.32 11372.32 0 00-7.715-22.585c-.584-1.692-.903-2.171-1.732-2.6-.948-.49-2.033-.285-7.04 1.325zM7.642 28.742v6.743H1.323l.119.593c.065.327.119.84.119 1.14v.546h82.263l3.041 9.117 3.042 9.116H34.06v2.849h26.8v1.71h17.308c16.395 0 17.302-.018 17.207-.333-1.362-4.498-11.077-36.195-11.352-37.036L83.635 22H7.642v6.742zm42.043-5.018c.904.238 2.181 1.213 2.85 2.175.762 1.097 1.172 2.916 1.043 4.628-.28 3.702-2.852 5.947-6.489 5.662-1.697-.133-2.568-.505-3.73-1.59-1.252-1.171-1.741-2.462-1.75-4.622-.01-1.937.235-2.891 1.054-4.108 1.446-2.147 4.027-2.935 7.022-2.145zm-10.683.84v1.044h-.623c-.927 0-1.367.42-1.936 1.847-.282.708-.687 1.474-.899 1.702l-.386.415.66.577c.603.53 3.184 5.144 3.184 5.694 0 .138-.533.212-1.525.212-1.45 0-1.534-.024-1.705-.473-.437-1.147-2.144-4.392-2.425-4.608-.736-.565-.807-.352-.807 2.422v2.659h-2.66V23.71h2.649l.053 2.558.053 2.558.475-.236c.33-.165.68-.716 1.148-1.808 1.125-2.629 1.807-3.19 3.936-3.242l.808-.02v1.045zm-25.278 4.178v5.034h3.231V23.71h2.661v10.067h3.421V23.71h2.661v12.346H11.063V23.71h2.661v5.033zm53.026 1.14v6.173h-2.66V25.989h-3.421l-.005 3.751c-.005 4.184-.127 5.014-.841 5.728-.45.45-.627.493-2.057.493h-1.564v-2.09l.758-.061c.417-.034.822-.162.9-.285.078-.123.143-2.381.145-5.02l.003-4.795h8.743v6.173zm12.948-.018c1.346 3.334 2.447 6.09 2.447 6.126 0 .035-.663.064-1.473.063L79.2 36.05l-.533-1.422-.534-1.422h-4.66l-.484 1.377-.482 1.377-1.476.056c-1.148.043-1.454 0-1.379-.19l2.325-5.944a5528.21 5528.21 0 012.326-5.943c.07-.177.494-.23 1.523-.19l1.425.055 2.448 6.06zm-33.622-3.75c-.343.17-.783.53-.977.803-1.1 1.548-.988 4.766.21 6.041.608.647 1.903 1.078 2.76.92 1.773-.33 2.557-1.408 2.683-3.69.121-2.184-.402-3.44-1.715-4.123-.685-.356-2.19-.331-2.961.05zm29.045 2.589c-.353.962-.68 1.856-.725 1.986-.062.176.287.237 1.362.237.795 0 1.445-.064 1.444-.142-.001-.137-1.322-3.71-1.401-3.79-.022-.023-.328.747-.68 1.709zM.8 47.404v5.935h2.281v-4.558l2.043-.004c2.826-.006 3.813-.473 4.507-2.133.676-1.618.121-3.733-1.194-4.55-.644-.4-.975-.443-4.168-.53l-3.47-.095.001 5.935zm22.617 0v5.935h2.091v-4.653c0-2.56.066-4.653.146-4.653.08 0 .662 2.072 1.292 4.606l1.145 4.605 1.136.056 1.135.055 1.131-4.518c.622-2.486 1.198-4.6 1.28-4.7.08-.1.147 1.93.147 4.511v4.691h2.091V41.564H31.49l-1.024 3.94c-.564 2.168-1.083 4.009-1.154 4.09-.148.17-.223-.073-1.438-4.647l-.892-3.358-1.783-.06-1.783-.06v5.935zm17.248-5.77c-2.071.77-3.241 2.522-3.493 5.234-.323 3.466 1.535 6.134 4.628 6.65 3.244.54 5.997-1.113 6.72-4.037.289-1.167.126-3.974-.286-4.93-.417-.97-1.532-2.168-2.472-2.657-.989-.515-3.999-.668-5.097-.26zm-28.461 5.818v5.887h8.933V51.63h-6.652v-3.609h6.081v-1.709h-6.081v-3.039h6.462v-1.709h-8.743v5.888zm38.772 0v5.887h2.08l.053-2.611.052-2.612h4.941l.054 2.612.053 2.611h2.269V41.564h-2.28v4.748h-5.132v-4.748h-2.09v5.888zm11.308-5.034v.855H65.8v10.066h2.275l.05-4.985.05-4.986 1.759-.055 1.758-.054v-1.695h-9.408v.854zm12.497 4.699a980.035 980.035 0 00-2.257 5.9c-.109.309-.006.336 1.068.284l1.188-.057.473-1.282.473-1.282h4.997l.495 1.282.494 1.282 1.248.056 1.247.056-2.342-5.849-2.342-5.848-1.302-.05-1.302-.05-2.138 5.558zM6.775 43.723c1.013.663 1.067 2.096.106 2.804-.355.26-.88.361-2.09.399l-1.615.05-.055-1.875-.054-1.876 1.602.084c1.085.056 1.765.19 2.106.414zm37.928-.048c1.47.825 2.109 3.263 1.45 5.528-.899 3.09-4.823 3.467-6.213.598-.9-1.858-.43-4.977.891-5.901.761-.533.977-.595 2.136-.612.708-.01 1.239.108 1.736.387zm34.378 2.644c.431 1.152.784 2.178.784 2.279 0 .104-.746.183-1.731.183-1.397 0-1.712-.05-1.63-.263.055-.145.428-1.17.828-2.277.4-1.108.78-2.015.847-2.016.066-.001.472.94.902 2.093z" fill="#90949B"/></svg>