<svg width="101" height="64" fill="none" xmlns="http://www.w3.org/2000/svg"><path d="M50.738 2.371a.514.514 0 00-.171.031 1.734 1.734 0 01-.429-.187l.6-.435.593.43c-.117.075-.26.14-.428.19a.522.522 0 00-.165-.029zM49.568.93l.702.51-.23.708c-.562-.426-.494-1.082-.472-1.218zm2.327.01c.023.154.075.782-.463 1.199l-.226-.698.69-.501zm.94 16.437a2.11 2.11 0 00-1.244-1.924h.003c-.038-.017-.075-.037-.114-.052-.294-.138-.263-.546-.263-.546l.612-1.469c-.12-.363-.494-.492-.494-.492v-.36s.36-.51.251-1.218c-.016-.103-.543-7.188-.604-7.958a.522.522 0 00.28-.461c0-.057-.01-.11-.028-.162 1.53-.82.782-2.172.45-2.342-.062-.038-.098.018-.058.06.053.039.179.206.258.438h-.856l-.29-.89-.29.89h-.87c.078-.232.204-.4.256-.439.04-.041.005-.097-.057-.059-.333.17-1.085 1.53.462 2.349a.52.52 0 00.24.608c-.057.735-.588 7.862-.604 7.966a1.79 1.79 0 00.251 1.219v.359s-.372.13-.494.492l.613 1.469s.03.408-.264.546l-.017.007a2.111 2.111 0 00-1.352 1.969v1.69h-.926v2.716h6.076v-2.716h-.927v-1.691zm-.78 28.95c.316.01.631.02.946.036V22.895h-.947v23.43zm16.365-13.99v17.384c.618.249 1.23.508 1.836.782V32.337H68.42zm-3.481 0h-2.656v15.396c1.792.448 3.543 1 5.25 1.644v-18.61H64.94v1.57zm-7.685 14.424c1.348.186 2.677.426 3.987.722v-9.396h-3.987v8.674zm-3.347-.345c.768.052 1.532.122 2.29.21v-23.73h-2.29v23.52zm-18.061-15.65h-2.688V49.63a47.556 47.556 0 015.263-1.734V32.337h-2.575v-1.57zm3.657 16.857c1.4-.337 2.826-.61 4.271-.82v-8.716h-4.27v9.536zm-9.055 3.174c.6-.282 1.209-.55 1.823-.807V32.337h-1.823v18.46zM50.2 46.311c.157-.002.312-.008.468-.008.16 0 .319.007.479.008V22.895H50.2v23.416zm-5.372-9.313h.004v9.664a47.6 47.6 0 012.61-.246v-23.52h-2.614v14.102zm3.52 9.364c.315-.015.63-.026.946-.036v-23.43h-.946v23.466zM.6 56.88h1.005l1.388 3.882h.04l1.318-3.881h1.005v7.039H4.35v-4.405H4.3l-1.055 3.178h-.533l-1.057-3.178h-.05v4.405H.6v-7.04zm6.074 0H9.73v.956H7.679v6.084H6.674v-7.04zm4.745 0l.965 3.449h.03c.06-.381.171-1.025.262-1.438l.442-2.01h1.036l-1.196 4.806c-.201.785-.332 1.679-.926 2.041-.301.181-.603.192-.864.192h-.362v-.956h.25c.202 0 .373-.07.463-.17.08-.081.171-.293.201-.423l.132-.593-1.58-4.897h1.147zm6.327 2.052v2.786l1.238-2.173v-.613h1.005v4.988h-1.005v-2.786l-1.238 2.172v.614h-1.005v-4.988h1.005zm5.431 2.786h.02l1.066-2.786h.926v4.988h-.946v-2.837l-.844 2.123h-.423l-.845-2.123v2.837h-.945v-4.988h.925l1.066 2.786zm5.2-.694v-.654a.517.517 0 00-.141-.393.527.527 0 00-.372-.14.495.495 0 00-.392.171.607.607 0 00-.121.402v.614h1.026zM27.35 62.44c0 .15.01.312.13.433.081.09.222.14.383.14.171 0 .302-.06.402-.21a.7.7 0 00.09-.342h1.006v.04c0 .372-.07.864-.563 1.217-.251.18-.593.281-.935.281-.463 0-.895-.19-1.157-.482-.352-.393-.361-.906-.361-1.208V60.4c0-.352.07-.844.492-1.206.231-.202.573-.343.995-.343.433 0 .795.141 1.046.363.443.381.503.885.503 1.276v1.307H27.35v.644zm3.14-3.508h1.004v2.011h1.026v-2.011h1.006v4.988H32.52v-2.072h-1.026v2.072H30.49v-4.988zm5.239 0v2.786l1.236-2.173v-.613h1.006v4.988h-1.006v-2.786l-1.236 2.172v.614h-1.007v-4.988h1.007zm5.952-2.052h1.007l1.387 3.882h.04l1.317-3.881h1.006v7.039h-1.006v-4.405h-.05l-1.056 3.178h-.533l-1.055-3.178h-.05v4.405H41.68v-7.04zm5.975 7.04h1.105v-1.107h-1.105v1.107zm3.429-.906h.453c.15 0 .473-.02.683-.311.171-.231.18-.594.18-.714v-.332c0-.341-.049-.583-.27-.774a.76.76 0 00-.533-.18h-.513v2.311zm0-3.218h.483c.341 0 .543-.14.643-.26.12-.142.19-.383.19-.604V58.5a.743.743 0 00-.19-.483c-.12-.12-.322-.231-.654-.231h-.472v2.01zm.352-2.915c.302 0 .885.03 1.327.342.633.452.644 1.206.644 1.618 0 .463-.04.785-.301 1.097a1.452 1.452 0 01-.383.321c.272.12.393.292.483.443.201.352.201.543.201.885v.533c0 .291 0 1.016-.604 1.468-.22.17-.593.332-1.196.332h-1.53v-7.04h1.359zm3.088 7.039h1.106v-1.107h-1.106v1.107zm7.595 0h-1.005v-6.134h-.804l-.03.985c-.04 1.226-.05 1.8-.09 2.353-.052.744-.111 1.116-.152 1.307-.07.342-.17.674-.483 1.016-.372.403-.764.473-1.177.473h-.23v-.956h.11c.1 0 .241-.01.392-.1a.823.823 0 00.353-.463c.11-.352.18-1.377.2-1.73.03-.552.06-.995.07-1.9l.03-1.89h2.817v7.039zm3.2-3.44c0-.23-.06-.401-.151-.503a.519.519 0 00-.362-.14.522.522 0 00-.363.14c-.09.102-.15.272-.15.504v1.89c0 .231.06.402.15.503.08.08.211.14.363.14.15 0 .281-.06.362-.14.09-.1.15-.272.15-.503v-1.89zm-2.032.061c0-.393.03-.946.493-1.337.271-.232.654-.352 1.026-.352.371 0 .754.12 1.026.352.462.391.492.944.492 1.337v1.77c0 .392-.03.944-.492 1.337-.272.23-.654.352-1.026.352s-.755-.121-1.026-.352c-.463-.393-.493-.945-.493-1.338v-1.769zm6.135 1.177h.02l1.066-2.786h.925v4.988h-.946v-2.837l-.845 2.123h-.422l-.844-2.123v2.837h-.945v-4.988h.924l1.067 2.786zm5.148-1.238c0-.23-.06-.401-.15-.503a.518.518 0 00-.362-.14.52.52 0 00-.362.14c-.091.102-.15.272-.15.504v1.89c0 .231.059.402.15.503.08.08.211.14.362.14.15 0 .28-.06.361-.14.09-.1.151-.272.151-.503v-1.89zm-2.031.061c0-.393.031-.946.494-1.337.27-.232.652-.352 1.025-.352.373 0 .755.12 1.026.352.461.391.493.944.493 1.337v1.77c0 .392-.032.944-.493 1.337-.271.23-.653.352-1.026.352s-.754-.121-1.025-.352c-.463-.393-.494-.945-.494-1.338v-1.769zm4.144-1.609h1.006v2.011h1.025v-2.011h1.006v4.988h-1.006v-2.072H77.69v2.072h-1.006v-4.988zm6.174 1.548c0-.23-.06-.401-.15-.503a.52.52 0 00-.362-.14.52.52 0 00-.363.14c-.09.102-.15.272-.15.504v1.89c0 .231.06.402.15.503.08.08.212.14.363.14.15 0 .28-.06.362-.14.09-.1.15-.272.15-.503v-1.89zm-2.031.061c0-.393.03-.946.493-1.337.27-.232.653-.352 1.026-.352.372 0 .753.12 1.025.352.463.391.493.944.493 1.337v1.77c0 .392-.03.944-.493 1.337-.272.23-.653.352-1.025.352-.373 0-.755-.121-1.026-.352-.463-.393-.493-.945-.493-1.338v-1.769zm6.154-.101v-.07a.58.58 0 00-.11-.342.47.47 0 00-.402-.19.49.49 0 00-.392.17c-.12.14-.14.312-.14.482v1.931c0 .141.029.312.12.423.05.06.17.17.412.17.151 0 .291-.03.402-.17a.492.492 0 00.11-.332v-.08h1.006v.09c0 .593-.282.945-.502 1.136a1.557 1.557 0 01-1.006.342c-.453 0-.884-.15-1.156-.433-.403-.412-.393-.894-.393-1.327v-1.72c0-.402.04-.915.463-1.298.211-.19.543-.371 1.036-.371.483 0 .905.16 1.156.432.272.282.402.734.402 1.126v.03H86.98zm3.903.04c0-.23-.06-.401-.151-.503a.518.518 0 00-.362-.14.52.52 0 00-.362.14c-.09.102-.15.272-.15.504v1.89c0 .231.06.402.15.503.08.08.211.14.362.14s.282-.06.362-.14c.09-.1.15-.272.15-.503v-1.89zm-2.031.061c0-.393.03-.946.492-1.337.272-.232.654-.352 1.026-.352s.754.12 1.026.352c.463.391.492.944.492 1.337v1.77c0 .392-.03.944-.492 1.337-.272.23-.654.352-1.026.352s-.754-.121-1.026-.352c-.462-.393-.492-.945-.492-1.338v-1.769zm5.149 2.473h.462c.131 0 .313-.02.432-.17.101-.111.111-.242.111-.352v-.181a.55.55 0 00-.12-.372c-.121-.13-.281-.151-.423-.151h-.462v1.226zm0-2.03h.442c.151 0 .282-.011.402-.161.112-.131.121-.282.121-.403v-.1c0-.221-.1-.332-.12-.352-.11-.121-.272-.13-.403-.13h-.442v1.145zm.653-2.052c.423 0 .775.15.987.362.22.231.33.593.33.865v.24c0 .213-.029.494-.24.735a.898.898 0 01-.393.252c.12.04.303.12.463.332.17.23.21.492.21.713v.232c0 .462-.22.774-.402.935-.32.292-.714.322-1.085.322h-1.529v-4.988h1.66zm4.445 2.815c-.12-.02-.24-.03-.351-.03-.161 0-.402.02-.564.212-.13.15-.15.361-.15.523 0 .14.02.28.1.412a.444.444 0 00.401.231c.304 0 .564-.201.564-.643v-.705zm0 1.68h-.02c-.07.11-.2.272-.342.382a.863.863 0 01-.583.191c-.201 0-.513-.03-.763-.261-.312-.292-.364-.745-.364-1.147 0-.361.02-.905.312-1.246.333-.393.897-.433 1.187-.433.072 0 .262 0 .573.03v-.523c0-.14-.01-.292-.13-.423a.538.538 0 00-.402-.16.514.514 0 00-.403.18.548.548 0 00-.13.323h-.955a1.502 1.502 0 01.412-1.077c.251-.25.663-.411 1.126-.411.452 0 .824.16 1.075.402.364.362.413.834.413 1.177v3.489H99.1v-.493z" fill="#90949B"/></svg>