<svg width="115" height="64" fill="none" xmlns="http://www.w3.org/2000/svg"><path fill-rule="evenodd" clip-rule="evenodd" d="M87.402 17.873l-.055.1a.594.594 0 00-.074.293c0 .143.049.289.124.375l.18.205c.088.1.146.275.146.437l-.008.108-.043.274-.026.274c-.02.232-.03.356-.03.375 0 .685.7.98 2.327.98 2 0 2.414.309 2.414 1.803 0 2.044-1.073 4.816-2.736 7.077-.789 1.07-.978 1.41-.978 1.76 0 .192.074.265.268.265.95 0 2.533-.818 4.813-2.487 3.502-2.563 5.327-3.454 7.883-3.846.691-.107.8-.174.8-.491 0-.424-.071-.663-.631-2.113-.511-1.324-.784-2.508-.784-3.407 0-1.191.062-1.284 1.184-1.795.912-.415 1.153-.612 1.493-1.218.424-.756.516-.894.837-1.273.886-1.044 1.213-1.868 1.213-3.058l-.002-.09-.013-.624v-.08c0-.354.045-.705.138-1.069l.156-.612c.105-.41.168-.93.168-1.39 0-.403-.04-.7-.137-1.014l-.143-.468-.125-.512-.074-.6c-.215-1.716-1.459-3.36-3.037-4.014-.605-.251-.656-.28-1.162-.675-.985-.767-1.508-.942-2.81-.942l-.644.005c-.328 0-.875-.067-1.41-.174l-.625-.125A6.16 6.16 0 0094.797 0c-.553 0-.865.056-1.666.302-.529.163-.743.21-1.237.275-.92.12-1.31.267-2.567.968-1.105.615-1.202.689-1.518 1.155a5.326 5.326 0 01-.243.338 6.975 6.975 0 01-.37.38c-.52.513-.707.959-.707 1.693 0 1.127.462 1.897 1.396 2.322.171.079.232.168.232.34 0 .21-.082.457-.433 1.302-.248.601-.295.741-.295.889 0 .109.033.223.095.329l.181.306a.888.888 0 01.125.45c0 .243-.065.432-.275.799l-.438.762c-.909 1.583-1.19 2.176-1.19 2.511 0 .385.178.547.747.68.65.15.826.28.826.61 0 .116-.036.217-.138.39-.134.224-.169.314-.169.43 0 .132.01.155.175.375l.094.124c.024.031.028.04.028.05 0 .01-.002.016-.015.038l-.033.055zM.11 45.46c1.692.891 2.88 1.228 4.331 1.228 2.84 0 4.978-1.925 4.978-4.484 0-1.858-.775-2.81-3.287-4.048l-1.306-.644c-1.846-.909-2.406-1.46-2.406-2.365 0-1.212.997-2.1 2.358-2.1 1.402 0 2.47.754 3.49 2.467l.156.007.043-2.568c-1.587-.647-2.558-.875-3.73-.875C2.2 32.078.24 33.712.24 35.827c0 1.574.87 2.58 3.312 3.832l1.205.617c2.026 1.04 2.501 1.55 2.501 2.687 0 1.416-1.266 2.537-2.868 2.537-1.87 0-3.388-1.195-3.962-3.119l-.262-.007L.11 45.46zm18.783-9.954c-.981-.397-1.805-.563-2.81-.563-3.287 0-5.608 2.407-5.608 5.819 0 3.494 2.156 5.898 5.29 5.898 1.234 0 2.077-.275 3.166-1.03l.3-1.568-.088-.018c-.863.979-1.739 1.431-2.771 1.431-2.132 0-3.457-1.95-3.457-5.088 0-2.751 1.29-4.516 3.303-4.516 1.191 0 1.935.537 2.507 1.811h.168v-2.175zm8.932 10.935h2.998v-.075c-.52-.424-.655-.861-.655-2.123v-4.096l-.006-.588c-.035-3.23-1.17-4.614-3.783-4.614-1.296 0-2.452.49-3.625 1.537v-9.954h-2.962v.075c.48.476.587.867.587 2.122v15.467c0 1.274-.146 1.757-.655 2.173v.075h3.685v-.075c-.505-.411-.656-.9-.656-2.123v-4.477c0-2.391.893-3.541 2.747-3.541 1.781 0 2.325.824 2.325 3.529v6.688zM44.44 35.294c.495.134.745.47.745 1.002 0 .287-.143.937-.332 1.508l-1.905 5.763-2.468-8.347h-1.212l-2.692 8.335-1.867-6.263-.075-.281-.1-.388a2.434 2.434 0 01-.077-.539c0-.376.113-.587.433-.803V35.2h-3.817v.08c.672.396 1.015 1.103 1.787 3.685l2.236 7.475h1.717l2.43-7.531 2.236 7.531h1.712l2.93-9.06c.427-1.324.767-1.735 1.724-2.086v-.08H44.44v.08zm20.708-.013l-.424 2.279.123.006c.558-.898 1.337-1.235 2.905-1.254l1.962-.026-6.16 10.154h9.02l.313-2.642h-.138c-.788 1.265-1.389 1.561-3.16 1.561h-2.76l6.108-10.078h-7.79zm11.656 4.402V26.521h-2.96v.082c.452.399.586.882.586 2.122v15.468c0 1.301-.135 1.749-.655 2.172v.076h3.684v-.076c-.53-.477-.655-.887-.655-2.123v-3.97l4.598 6.17h3.197v-.076a56.669 56.669 0 01-3.054-3.61 61.583 61.583 0 01-1.274-1.679c-.098-.135-.438-.61-1.019-1.423l-.357-.5 4.53-3.872v-.08h-3.66v.08c.22.082.35.3.35.59 0 .781-.52 1.43-2.499 3.12l-.812.691zm33.312-3.39l.007 7.809c0 1.39-.11 1.77-.656 2.262v.075h3.654v-.075c-.521-.424-.656-.86-.656-2.123l-.006-7.949h1.799l.212-1.011h-2.005v-3.59c0-1.238.411-1.887 1.194-1.887.423 0 .717.19.948.613h.037l.357-1.473c-.292-.082-.575-.113-.995-.113-2.806 0-3.884 1.5-3.884 5.408v1.042h-.768l-.338 1.019 1.1-.008zm-49.121.374l-.007-1.466h-2.93v.075c.482.479.587.857.587 2.122v6.794c0 1.3-.136 1.749-.656 2.173v.075h3.654v-.075c-.528-.477-.656-.892-.656-2.13v-.324l.007-4.697v-.374c0-1.219.708-2.054 1.74-2.054.523 0 .913.194 1.214.607h.074l.132-2.33c-1.364.074-2.166.48-3.16 1.604zm-5.373 7.525v-4.533l-.007-.737c-.025-2.95-.924-3.987-3.455-3.987-1.05 0-2.069.251-3.404.839l-.412 2.023h.262c.822-1.265 1.82-1.928 2.895-1.928 1.014 0 1.74.726 1.74 1.743 0 1.039-.649 1.658-2.604 2.484-2.87 1.211-3.726 2.059-3.726 3.697 0 1.634 1.209 2.804 2.896 2.804 1.064 0 2.436-.548 3.572-1.426v1.268h2.898v-.075c-.51-.416-.655-.899-.655-2.172zm-2.268-1.374c0 1.534-.846 2.457-2.253 2.457-1.034 0-1.814-.815-1.814-1.894 0-1.121.529-1.727 2.369-2.711.865-.463 1.139-.64 1.698-1.093v3.241z" fill="#90949B"/><path fill-rule="evenodd" clip-rule="evenodd" d="M90.174 34.832c-3.466 0-6.114 2.582-6.114 5.965 0 3.367 2.662 6.013 6.048 6.013 3.378 0 5.946-2.595 5.946-6.006 0-3.342-2.589-5.972-5.88-5.972zm.088 11.046c-2.106 0-3.578-2.262-3.578-5.497 0-2.76 1.303-4.613 3.247-4.613 2.1 0 3.493 2.22 3.493 5.569 0 2.786-1.222 4.541-3.162 4.541zm13.169-10.934c-1.508 0-2.584.51-3.51 1.662V35.2h-2.93v.075c.446.391.593.92.593 2.122v14.93c0 1.291-.12 1.691-.656 2.174v.074h3.655v-.074c-.521-.424-.657-.861-.657-2.123v-.331l-.006-6.1c.852.53 1.579.738 2.57.738 3.122 0 5.618-2.847 5.618-6.407.001-3.134-1.93-5.335-4.677-5.335zm-1.071 10.775c-1.579 0-2.388-.865-2.42-2.589l-.013-.674-.007-.205v-2.779c0-2.244.826-3.319 2.544-3.319 1.909 0 3.19 1.913 3.19 4.768 0 2.913-1.294 4.798-3.294 4.798zM.881 59.812c0-1.326 0-1.57-.017-1.85-.017-.296-.087-.436-.375-.497a1.787 1.787 0 00-.34-.026c-.097 0-.149-.017-.149-.079 0-.061.06-.078.192-.078.462 0 1.012.026 1.256.026.358 0 .864-.026 1.266-.026 1.09 0 1.483.367 1.622.498.193.182.437.576.437 1.038 0 1.238-.908 2.111-2.147 2.111-.043 0-.14 0-.183-.01-.044-.008-.105-.017-.105-.077 0-.07.061-.096.245-.096.488 0 1.169-.55 1.169-1.44 0-.286-.026-.872-.515-1.307a1.294 1.294 0 00-.872-.341c-.131 0-.262.009-.34.036-.044.016-.07.069-.07.165v3.49c0 .803 0 1.49.043 1.867.027.244.079.435.34.47.123.018.315.036.446.036.095 0 .139.026.139.069 0 .061-.07.088-.166.088-.575 0-1.125-.027-1.352-.027-.201 0-.75.027-1.1.027-.113 0-.174-.027-.174-.088 0-.043.035-.069.14-.069.13 0 .235-.018.314-.036.174-.035.218-.226.253-.479.043-.367.043-1.055.043-1.857v-1.538zm9.558 0c0-1.326 0-1.57-.018-1.85-.017-.296-.087-.436-.375-.497a1.779 1.779 0 00-.34-.026c-.096 0-.15-.017-.15-.079 0-.061.062-.078.193-.078.463 0 1.012.026 1.196.026.297 0 .96-.026 1.23-.026.55 0 1.134.053 1.606.375.245.166.594.61.594 1.195 0 .645-.271 1.239-1.152 1.953.777.978 1.379 1.755 1.894 2.295.488.506.846.567.977.593.096.017.175.026.244.026.07 0 .105.026.105.07 0 .07-.06.087-.166.087h-.83c-.487 0-.706-.043-.933-.166-.375-.2-.707-.61-1.195-1.282-.35-.48-.75-1.074-.864-1.204-.043-.052-.096-.061-.157-.061l-.76-.017c-.043 0-.07.017-.07.069v.123c0 .81 0 1.5.044 1.867.027.253.08.444.34.478.132.018.324.036.428.036.07 0 .105.026.105.07 0 .06-.061.087-.175.087-.506 0-1.152-.026-1.283-.026-.165 0-.715.026-1.064.026-.113 0-.175-.026-.175-.088 0-.043.035-.069.14-.069.131 0 .236-.017.314-.036.174-.034.218-.226.253-.478.043-.367.043-1.055.043-1.858v-1.535zm1.03.689c0 .096.017.131.078.157.184.061.445.088.664.088.35 0 .462-.036.62-.149.261-.193.514-.593.514-1.31 0-1.237-.82-1.594-1.335-1.594-.218 0-.375.007-.463.034-.06.018-.078.053-.078.123v2.65zm8.407.079c0-1.492.986-3.42 3.604-3.42 2.173 0 3.525 1.265 3.525 3.262 0 1.998-1.396 3.576-3.612 3.576-2.504 0-3.517-1.875-3.517-3.418zm5.908.166c0-1.955-1.125-3.167-2.557-3.167-1.003 0-2.146.558-2.146 2.73 0 1.814 1.003 3.254 2.679 3.254.61 0 2.024-.296 2.024-2.817zm7.99.602c0 .836 0 1.49.043 1.857.026.253.079.445.34.48.123.017.315.035.437.035.114 0 .15.026.15.069 0 .061-.062.088-.193.088-.55 0-1.1-.027-1.327-.027-.226 0-.776.027-1.107.027-.123 0-.184-.018-.184-.088 0-.043.036-.069.131-.069.131 0 .236-.018.314-.036.175-.035.218-.226.254-.479.043-.367.043-1.02.043-1.857v-1.536c0-1.326 0-1.57-.017-1.85-.017-.296-.087-.436-.375-.497a1.787 1.787 0 00-.34-.026c-.088 0-.15-.017-.15-.07 0-.07.07-.087.202-.087.453 0 1.003.026 1.256.026.332 0 2.103 0 2.304-.01.166-.007.27-.007.358-.034.052-.018.096-.052.14-.052.035 0 .06.034.06.079 0 .06-.044.165-.07.392-.008.087-.026.602-.043.707-.008.07-.026.121-.087.121-.06 0-.078-.043-.088-.139 0-.069 0-.21-.052-.33-.062-.124-.245-.254-.576-.263l-1.344-.025c-.052 0-.078.026-.078.122v2.18c0 .053.008.078.06.078l1.117-.008c.149 0 .271 0 .394-.009.165-.009.288-.043.375-.157.043-.052.06-.087.113-.087.035 0 .052.026.052.078 0 .053-.044.27-.07.542a12.34 12.34 0 00-.035.636c0 .08 0 .166-.087.166-.052 0-.069-.061-.069-.123a.972.972 0 00-.052-.27c-.044-.122-.175-.28-.446-.314-.218-.027-1.143-.027-1.291-.027-.044 0-.061.018-.061.08l-.002.707zm8.17-1.536c0-1.326 0-1.57-.018-1.85-.017-.296-.087-.436-.376-.497a1.78 1.78 0 00-.34-.026c-.096 0-.149-.017-.149-.079 0-.061.062-.078.192-.078.463 0 1.012.026 1.257.026.279 0 2.016 0 2.181-.01.166-.016.306-.034.376-.052.043-.007.095-.034.139-.034.043 0 .052.034.052.079 0 .06-.044.165-.07.566-.008.088-.026.471-.044.576-.008.043-.026.096-.087.096s-.078-.044-.078-.122a.97.97 0 00-.052-.314c-.062-.157-.149-.262-.585-.314a27.802 27.802 0 00-1.24-.035c-.043 0-.06.026-.06.087v2.208c0 .06.009.095.06.095.192 0 1.196 0 1.397-.017.21-.017.34-.043.418-.13.062-.07.096-.114.14-.114.035 0 .061.017.061.069 0 .052-.043.192-.069.638a11 11 0 00-.035.584c0 .07 0 .166-.079.166-.06 0-.078-.035-.078-.08-.009-.086-.009-.199-.035-.313-.044-.175-.166-.305-.489-.34a27.436 27.436 0 00-1.24-.026c-.042 0-.052.034-.052.087v.69c0 .296-.008 1.099 0 1.351.018.602.158.733 1.048.733.227 0 .593 0 .82-.104.227-.105.332-.289.393-.647.018-.095.035-.13.096-.13.07 0 .07.069.07.157 0 .201-.07.794-.113.968-.061.227-.14.227-.472.227-1.317 0-1.902-.053-2.417-.053-.2 0-.75.027-1.1.027-.113 0-.174-.027-.174-.088 0-.043.034-.069.139-.069.13 0 .236-.018.314-.036.175-.035.218-.226.253-.479.044-.367.044-1.055.044-1.857l.002-1.536zm8.877 3.96c-.14-.061-.166-.104-.166-.296 0-.48.036-1.004.044-1.143.009-.13.035-.227.104-.227.079 0 .087.078.087.149 0 .112.036.296.079.445.192.645.706.881 1.248.881.785 0 1.169-.532 1.169-.995 0-.426-.13-.836-.855-1.395l-.401-.314c-.96-.75-1.292-1.36-1.292-2.067 0-.96.803-1.649 2.016-1.649a4.24 4.24 0 011.16.149c.08.017.123.043.123.104 0 .114-.035.367-.035 1.048 0 .192-.026.26-.096.26-.061 0-.087-.052-.087-.156a1.05 1.05 0 00-.227-.575c-.131-.166-.385-.428-.951-.428-.646 0-1.039.375-1.039.9 0 .4.201.706.926 1.255l.244.183c1.047.81 1.431 1.396 1.431 2.224a1.76 1.76 0 01-.82 1.519c-.436.278-.925.356-1.387.356-.507-.001-.9-.062-1.275-.228zm8.92 0c-.14-.061-.166-.104-.166-.296 0-.48.036-1.004.044-1.143.008-.13.035-.227.105-.227.078 0 .087.078.087.149 0 .112.035.296.078.445.192.645.706.881 1.248.881.785 0 1.17-.532 1.17-.995 0-.426-.132-.836-.856-1.395l-.402-.314c-.96-.75-1.291-1.36-1.291-2.067 0-.96.803-1.649 2.015-1.649.568 0 .935.087 1.16.149.08.017.123.043.123.104 0 .114-.034.367-.034 1.048 0 .192-.027.26-.097.26-.06 0-.087-.052-.087-.156 0-.078-.043-.349-.228-.575-.13-.166-.383-.428-.95-.428-.646 0-1.038.375-1.038.9 0 .4.2.706.924 1.255l.245.183c1.047.81 1.432 1.396 1.432 2.224 0 .505-.193 1.108-.82 1.519-.438.278-.926.356-1.389.356-.505-.001-.897-.062-1.273-.228zm9.4-3.96c0-1.326 0-1.57-.017-1.85-.017-.296-.104-.445-.296-.488a1.209 1.209 0 00-.314-.035c-.087 0-.14-.017-.14-.088 0-.052.07-.069.209-.069.332 0 .882.026 1.134.026.219 0 .734-.026 1.065-.026.114 0 .182.017.182.07 0 .07-.05.087-.14.087a1.41 1.41 0 00-.26.026c-.236.043-.306.192-.323.497-.017.28-.017.524-.017 1.85v1.536c0 .845 0 1.534.034 1.91.027.234.089.392.349.426.123.018.314.036.446.036.096 0 .14.026.14.069 0 .061-.07.088-.167.088-.575 0-1.124-.027-1.36-.027-.201 0-.75.027-1.1.027-.114 0-.175-.027-.175-.088 0-.043.036-.069.14-.069.13 0 .235-.018.313-.036.176-.035.228-.182.253-.436.044-.366.044-1.055.044-1.9v-1.536zm6.75.768c0-1.492.985-3.42 3.604-3.42 2.172 0 3.526 1.265 3.526 3.262 0 1.998-1.397 3.576-3.612 3.576-2.506 0-3.518-1.875-3.518-3.418zm5.909.166c0-1.955-1.127-3.167-2.558-3.167-1.003 0-2.147.558-2.147 2.73 0 1.814 1.004 3.254 2.68 3.254.61 0 2.025-.296 2.025-2.817zm7.42 1.944c.017.681.131.908.305.969.149.052.314.061.454.061.097 0 .15.018.15.069 0 .07-.08.088-.203.088-.567 0-.916-.027-1.08-.027-.08 0-.49.027-.943.027-.113 0-.192-.01-.192-.088 0-.051.052-.069.14-.069.113 0 .27-.01.393-.043.227-.07.26-.323.27-1.082l.079-5.164c0-.175.025-.296.112-.296.097 0 .176.112.324.27a109.98 109.98 0 002.706 2.8c.592.592 1.77 1.85 1.92 1.988h.043l-.087-3.916c-.01-.532-.088-.698-.297-.785-.131-.052-.34-.052-.463-.052-.104 0-.139-.027-.139-.08 0-.068.096-.077.227-.077.453 0 .872.026 1.056.026.095 0 .427-.026.854-.026.114 0 .202.01.202.078 0 .052-.052.08-.157.08-.088 0-.157 0-.261.025-.245.07-.314.253-.324.742l-.095 5.504c0 .191-.035.27-.114.27-.096 0-.201-.095-.296-.193-.55-.522-1.667-1.666-2.575-2.564-.952-.94-1.92-2.032-2.077-2.198h-.026l.094 3.663zm11.967-1.09c-.043 0-.061.017-.078.07l-.472 1.247a1.69 1.69 0 00-.131.532c0 .157.079.27.35.27h.13c.105 0 .13.018.13.07 0 .07-.052.087-.148.087-.279 0-.654-.026-.924-.026-.097 0-.576.026-1.03.026-.114 0-.166-.017-.166-.088 0-.05.034-.069.105-.069.077 0 .2-.009.27-.017.402-.053.566-.349.742-.785l2.191-5.478c.104-.253.157-.348.244-.348.079 0 .131.078.218.278.21.48 1.605 4.039 2.164 5.365.332.785.586.908.768.95.132.027.262.036.367.036.07 0 .114.01.114.069 0 .07-.079.088-.401.088-.314 0-.952 0-1.649-.018-.158-.009-.262-.009-.262-.07 0-.05.036-.068.123-.077.061-.018.122-.096.078-.201l-.698-1.849c-.018-.044-.043-.061-.087-.061h-1.948zm1.78-.436c.043 0 .052-.026.043-.053l-.784-2.153c-.01-.036-.018-.08-.045-.08-.025 0-.043.044-.052.08l-.803 2.146c-.009.034 0 .06.036.06h1.605zm8.913.184c0 1.115 0 1.718.184 1.875.148.13.374.192 1.055.192.463 0 .803-.01 1.022-.244.104-.114.209-.358.226-.524.009-.078.027-.13.097-.13.06 0 .068.043.068.148 0 .096-.061.75-.13 1.003-.052.191-.097.235-.551.235-1.256 0-1.831-.053-2.539-.053-.201 0-.75.027-1.099.027-.114 0-.176-.027-.176-.088 0-.043.036-.069.141-.069.106 0 .211-.012.314-.036.174-.035.217-.226.253-.479.043-.367.043-1.055.043-1.857v-1.536c0-1.326 0-1.57-.017-1.85-.018-.296-.087-.436-.376-.497a1.274 1.274 0 00-.287-.026c-.096 0-.149-.017-.149-.079 0-.061.062-.078.192-.078.41 0 .96.026 1.196.026.21 0 .846-.026 1.186-.026.123 0 .184.017.184.078 0 .062-.053.08-.157.08-.096 0-.237.007-.341.025-.236.043-.307.192-.323.497-.018.28-.018.524-.018 1.85l.002 1.536z" fill="#90949B"/></svg>