<svg width="186" height="64" fill="none" xmlns="http://www.w3.org/2000/svg"><path d="M148.263 20.1v24.017h11.308V32.109c2.12.706 5.301 1.412 8.481 7.063 2.259 4.014 4.947 4.945 6.36 4.945h11.308c-1.178-1.766-4.24-5.934-7.067-8.476-3.534-3.18-5.654-4.592-9.188-5.298 3.77-2.002 11.308-3.532 11.308-10.243h-12.014c0 5.651-2.827 9.183-9.188 9.183V20.1h-11.308zm-37.104 4.238V20.1h33.924v4.238h-10.601v19.779H121.76V24.338h-10.601z" fill="#90949B"/><path fill-rule="evenodd" clip-rule="evenodd" d="M73.702 20.1v18.013c0 2.001 3.817 6.004 19.082 6.004h7.774c4.241 0 10.955-1.06 11.308-6.004.353-4.945-2.827-7.417-7.774-7.77 1.413 0 4.947-.99 4.947-4.945 0-3.956-5.418-5.18-8.127-5.298h-27.21zm12.015 16.247V24.338h7.774c.942 0 2.827.519 2.827 2.313 0 1.969-5.183 3.574-7.774 3.692 0 1.978 3.298 2.472 4.947 2.472 4.523 0 5.654 2.826 5.654 4.238 0 1.413-.707 2.826-6.36 2.826-5.655 0-7.068-2.355-7.068-3.532z" fill="#90949B"/><path d="M2.974 15.197l10.17-5.929 10.168 5.93a4.136 4.136 0 012.052 3.572v9.507a4.136 4.136 0 01-2.052 3.573l-8.086 4.714a4.136 4.136 0 01-4.166 0L2.974 31.85a4.136 4.136 0 01-2.052-3.573V18.77c0-1.471.781-2.832 2.052-3.573z" stroke="#90949B"/><path d="M2.974 32.15l10.17-5.928 10.168 5.928a4.136 4.136 0 012.052 3.573v9.508a4.136 4.136 0 01-2.052 3.572l-8.086 4.714a4.135 4.135 0 01-4.166 0l-8.086-4.714a4.136 4.136 0 01-2.052-3.572v-9.508c0-1.471.781-2.832 2.052-3.573zm29.683-16.953l10.169-5.929 10.169 5.93a4.136 4.136 0 012.052 3.572v9.507a4.136 4.136 0 01-2.052 3.573l-8.086 4.714a4.136 4.136 0 01-4.166 0l-8.086-4.714a4.136 4.136 0 01-2.052-3.573V18.77c0-1.471.781-2.832 2.052-3.573z" stroke="#90949B"/><path d="M32.657 32.15l10.169-5.928 10.169 5.928a4.136 4.136 0 012.052 3.573v9.508a4.136 4.136 0 01-2.052 3.572l-8.086 4.714a4.135 4.135 0 01-4.166 0l-8.086-4.714a4.136 4.136 0 01-2.052-3.572v-9.508c0-1.471.781-2.832 2.052-3.573zM17.816 6.72L27.985.793 38.154 6.72a4.136 4.136 0 012.052 3.572V19.8a4.136 4.136 0 01-2.052 3.573l-8.086 4.714a4.135 4.135 0 01-4.166 0l-8.086-4.715a4.136 4.136 0 01-2.052-3.572v-9.508c0-1.47.781-2.831 2.052-3.572z" stroke="#90949B"/><path d="M17.816 40.627l10.169-5.93 10.169 5.93a4.136 4.136 0 012.052 3.572v9.508a4.136 4.136 0 01-2.052 3.572l-8.086 4.715a4.135 4.135 0 01-4.166 0l-8.086-4.715a4.136 4.136 0 01-2.052-3.572v-9.508c0-1.47.781-2.831 2.052-3.572z" stroke="#90949B"/><path d="M24.046 32l-9.123 5.32a3.537 3.537 0 01-3.561 0L2.238 32l10.904-6.357L24.046 32zm29.684 0l-9.124 5.32c-1.1.641-2.46.641-3.56 0L31.921 32l10.904-6.357L53.73 32zM40.706 9.925v10.51a3.532 3.532 0 01-1.754 3.05l-8.847 5.159v-10.51c0-1.256.667-2.418 1.753-3.05l8.848-5.16zM25.865 28.644l-8.848-5.16a3.532 3.532 0 01-1.753-3.05V9.924l8.848 5.16a3.532 3.532 0 011.753 3.05v10.51zm14.841 25.435l-8.848-5.159a3.531 3.531 0 01-1.753-3.05V35.36l8.847 5.159a3.532 3.532 0 011.754 3.05v10.51zM25.865 35.36v10.51a3.532 3.532 0 01-1.753 3.05l-8.848 5.159v-10.51c0-1.256.667-2.418 1.753-3.05l8.848-5.16z" fill="#90949B"/></svg>