<svg width="160" height="160" fill="none" xmlns="http://www.w3.org/2000/svg"><rect width="160" height="160" rx="80" fill="#fff"/><path fill-rule="evenodd" clip-rule="evenodd" d="M75.729 67.197l13.919 8.947c.802.516 1.636 1.015 2.356 1.645.594.52 1.164 1.22 1.164 2.21 0 .992-.57 1.692-1.164 2.212-.561.49-1.363 1.006-2.278 1.594L75.813 92.75c-.915.587-1.826 1.219-2.82 1.667-.783.354-1.76.615-2.723.09-.962-.525-1.271-1.488-1.397-2.339-.122-.825-.122-1.912-.122-3.175V71.007c0-1.263 0-2.35.122-3.175.126-.85.435-1.814 1.397-2.34.962-.525 1.94-.264 2.723.09.76.344 1.675.932 2.737 1.615zm-4.256.5c.067.007.215.04.49.164.57.257 1.328.74 2.497 1.492l13.836 8.895c1.017.653 1.658 1.07 2.063 1.423.191.168.27.272.3.322l.003.007-.003.006c-.03.051-.109.155-.3.323-.405.354-1.046.77-2.063 1.424L74.46 90.647c-1.169.751-1.927 1.234-2.497 1.492-.275.124-.422.157-.49.163-.031-.06-.084-.201-.128-.5-.092-.62-.095-1.518-.095-2.908V71.106c0-1.39.003-2.289.095-2.908.044-.299.097-.44.128-.5z" fill="#22282F"/><path d="M71.473 67.698c.067.006.215.038.49.163.57.257 1.328.74 2.497 1.492l13.836 8.895c1.017.653 1.658 1.07 2.063 1.423.191.168.27.272.3.322l.003.007-.003.006c-.03.051-.109.155-.3.323-.405.354-1.046.77-2.063 1.424L74.46 90.647c-1.169.751-1.927 1.234-2.497 1.492-.275.124-.422.157-.49.163-.031-.06-.084-.201-.128-.5-.092-.62-.095-1.518-.095-2.908V71.106c0-1.39.003-2.289.095-2.908.044-.299.097-.44.128-.5z" fill="#22282F"/></svg>